<svg width="126" height="32" viewBox="0 0 126 32" fill="none" xmlns="http://www.w3.org/2000/svg">
<g clip-path="url(#clip0_1223_236)">
<path d="M116.163 10.3493H112.733C111.9 10.3493 111.221 11.0292 111.221 11.8644V14.2788C111.221 14.3788 111.182 14.4725 111.112 14.5429C111.037 14.6179 110.936 14.6589 110.818 14.6589H110.817C110.763 14.6589 110.71 14.6607 110.657 14.6625C110.561 14.6652 110.469 14.6313 110.397 14.5626C110.322 14.4903 110.278 14.3877 110.278 14.2824V11.8653C110.278 11.0301 109.6 10.3502 108.765 10.3502C107.931 10.3502 107.253 11.0301 107.253 11.8653V17.441C107.253 18.8981 106.581 19.6377 105.255 19.6377C103.929 19.6377 103.241 18.9195 103.241 17.441V11.8653C103.241 11.0301 102.562 10.3502 101.728 10.3502C100.893 10.3502 100.215 11.0301 100.215 11.8653V17.441C100.215 20.5211 102.1 22.3609 105.255 22.3609C107.993 22.3609 109.846 20.87 110.211 18.3734C110.241 18.1753 110.416 18.0361 110.614 18.0451C110.682 18.0495 110.75 18.0549 110.828 18.0513C110.937 18.0513 111.038 18.0923 111.113 18.1673C111.183 18.2378 111.222 18.3315 111.222 18.4314V20.7102C111.222 21.5284 111.843 22.2092 112.634 22.261C113.056 22.2878 113.46 22.1441 113.769 21.8541C114.073 21.5686 114.247 21.1653 114.247 20.7486V18.9168C114.247 18.5188 114.57 18.1958 114.967 18.1958H116.163C118.872 18.1958 120.555 16.6835 120.555 14.2485C120.555 11.8135 118.913 10.3502 116.163 10.3502L116.163 10.3493ZM117.497 14.2637C117.497 15.0926 117.01 15.5681 116.162 15.5681H114.965C114.568 15.5681 114.245 15.2443 114.245 14.8472V13.7122C114.245 13.3143 114.569 12.9913 114.965 12.9913H116.162C117.01 12.9913 117.497 13.4553 117.497 14.2637Z" fill="black"/>
<path d="M10.5311 31.8903C3.57804 31.8903 0.0507587 29.0627 0 23.9135L5.89513 23.9643C6.04652 25.9835 7.40632 27.0944 10.4296 27.0944C13.4528 27.0944 14.6114 26.236 14.5615 24.8227C14.5615 20.1776 0.503134 23.9643 0.503134 13.9683C0.503134 9.42405 4.53444 6.64734 11.0342 6.64734C17.534 6.64734 20.86 9.57573 20.9099 14.4725H14.9142C14.7628 12.4533 13.403 11.4432 10.9835 11.4432C8.36361 11.4432 7.20417 12.3524 7.20417 13.7658C7.20417 18.3101 21.2626 14.3208 21.2626 24.6201C21.3133 29.2144 17.1306 31.8903 10.5302 31.8903H10.5311Z" fill="black"/>
<path d="M48.6749 19.1675C48.6749 26.5893 43.6364 31.8903 35.9772 31.8903C28.318 31.8903 23.3303 26.8418 23.3303 19.42C23.3303 11.9982 28.4195 6.64734 35.9772 6.64734C43.5349 6.64734 48.6749 11.7466 48.6749 19.1684V19.1675ZM30.2834 19.3192C30.2834 23.4084 32.5506 26.1851 35.9772 26.1851C39.4039 26.1851 41.6711 23.4084 41.6711 19.3192C41.6711 15.23 39.5045 12.3524 35.9772 12.3524C32.4499 12.3524 30.2834 15.1292 30.2834 19.3192Z" fill="black"/>
<path d="M77.1942 31.3852C76.2369 31.6877 75.0783 31.8903 73.5663 31.8903C70.4424 31.8903 68.477 30.4261 67.7718 27.6493C66.4111 30.1735 64.0432 31.8903 60.4652 31.8903C54.8719 31.8903 51.748 27.851 51.748 22.8026V6.89895H58.702V21.1867C58.702 24.0642 60.1633 25.8818 62.6825 25.8818C65.5045 25.8818 67.469 23.8117 67.469 20.7325V6.89895H74.3722V24.6701C74.3722 25.6293 74.8762 26.1842 75.5815 26.1842C75.9849 26.1842 76.2369 26.1334 76.7908 25.9317L77.1942 31.3843V31.3852Z" fill="black"/>
<path d="M89.7405 31.3852C88.7832 31.6877 87.6246 31.8903 86.1126 31.8903C82.0813 31.8903 80.0153 29.4669 80.0153 25.0743V0.062458H86.9185V24.6701C86.9185 25.6293 87.4225 26.1842 88.1278 26.1842C88.5312 26.1842 88.7832 26.1334 89.3371 25.9317L89.7405 31.3843V31.3852Z" fill="black"/>
<path d="M110.031 2.12536C117.667 2.12536 123.879 8.34977 123.879 16.0009C123.879 23.652 117.667 29.8764 110.031 29.8764C102.395 29.8764 96.1824 23.652 96.1824 16.0009C96.1824 8.34977 102.395 2.12536 110.031 2.12536ZM110.031 0C101.211 0 94.0621 7.16395 94.0621 16C94.0621 24.836 101.212 32 110.031 32C118.849 32 125.999 24.836 125.999 16C125.999 7.16395 118.85 0 110.031 0Z" fill="black"/>
</g>
<defs>
<clipPath id="clip0_1223_236">
<rect width="126" height="32" fill="white"/>
</clipPath>
</defs>
</svg>
